<!-- Generated by IcoMoon.io -->
<svg version="1.1" xmlns="http://www.w3.org/2000/svg" width="16" height="16" viewBox="0 0 16 16">
<title>cog</title>
<path d="M16 8.985v-2l-2.39-0.996c-0.066-0.188-0.136-0.369-0.223-0.547l0.965-2.402-1.415-1.414-2.381 0.98c-0.181-0.088-0.367-0.162-0.559-0.231l-1.014-2.375h-2l-0.989 2.367c-0.199 0.071-0.391 0.144-0.58 0.235l-2.377-0.955-1.414 1.414 0.969 2.356c-0.094 0.194-0.17 0.391-0.243 0.594l-2.352 1.006v2l2.353 0.98c0.072 0.203 0.151 0.4 0.244 0.594l-0.951 2.371 1.414 1.414 2.362-0.973c0.189 0.090 0.383 0.162 0.582 0.23l1.011 2.367h2l0.99-2.379c0.19-0.070 0.377-0.145 0.556-0.23l2.399 0.961 1.414-1.414-0.985-2.386c0.084-0.18 0.152-0.361 0.219-0.547l2.391-1.020zM7.984 11c-1.656 0-3-1.344-3-3s1.344-3 3-3 3 1.344 3 3-1.344 3-3 3z"></path>
</svg>
