<?xml version="1.0" encoding="UTF-8" standalone="no"?>
<!DOCTYPE svg PUBLIC "-//W3C//DTD SVG 1.1//EN" "http://www.w3.org/Graphics/SVG/1.1/DTD/svg11.dtd">
<svg version="1.1" xmlns="http://www.w3.org/2000/svg" xmlns:xlink="http://www.w3.org/1999/xlink" preserveAspectRatio="xMidYMid meet" viewBox="0 0 92 41" width="92" height="41"><defs><path d="M51.13 4.42L51.13 37.73L68.75 37.73L68.75 41.58L47.67 41.58L47.67 0.58L64.4 0.58L64.4 4.42L51.13 4.42ZM74.21 21.08L74.21 13.39L76.5 13.39L74.49 21.08L74.21 21.08ZM77.09 11.16L66.71 11.16L66.71 0.58L77.2 10.71L77.09 11.16Z" id="berMGyJwc"></path><path d="M69.5 18.84L55.83 18.84" id="eryXu9TMx"></path><path d="M69.5 23.84L55.83 23.84" id="cTQ0hzTpn"></path><path d="M69.5 29.17L55.83 29.17" id="a2ulnViG9O"></path><path d="M16.73 4.42L3.46 4.42L3.46 37.73L26.54 37.73L26.54 13.39L30 13.39L30 41.58L0 41.58L0 0.58L16.73 0.58L16.73 4.42ZM19.04 11.16L19.04 0.58L30 11.16L19.04 11.16Z" id="jo1V7cBL"></path><path d="M21.83 18.84L8.17 18.84" id="aBXi1eNvy"></path><path d="M21.83 23.84L8.17 23.84" id="c3rjSTAwD"></path><path d="M21.83 29.17L8.17 29.17" id="ay4JrtMIl"></path><path d="M86.32 7.65L72.99 36.32" id="bpoV7Xesm"></path><path d="M75.06 36.52L70.67 40.57L71.54 34.69" id="e24pkOTJOe"></path><path d="M90.68 1.88C91.58 2.27 91.99 3.31 91.6 4.21C91.26 5.01 90.92 5.78 90.58 6.58C90.19 7.48 89.15 7.89 88.25 7.5C87.39 7.13 86.43 6.72 85.57 6.35C84.67 5.96 84.26 4.91 84.64 4.02C84.99 3.22 85.32 2.45 85.67 1.65C86.06 0.75 87.1 0.33 88 0.72C88.86 1.09 89.82 1.51 90.68 1.88Z" id="a8bNfngG9"></path></defs><g><g><g><g><use xlink:href="#berMGyJwc" opacity="1" fill="#000000" fill-opacity="1"></use><g><use xlink:href="#berMGyJwc" opacity="1" fill-opacity="0" stroke="#000000" stroke-width="1" stroke-opacity="1"></use></g></g><g><use xlink:href="#eryXu9TMx" opacity="1" fill="#000000" fill-opacity="1"></use><g><use xlink:href="#eryXu9TMx" opacity="1" fill-opacity="0" stroke="#000000" stroke-width="3" stroke-opacity="1"></use></g></g><g><use xlink:href="#cTQ0hzTpn" opacity="1" fill="#000000" fill-opacity="1"></use><g><use xlink:href="#cTQ0hzTpn" opacity="1" fill-opacity="0" stroke="#000000" stroke-width="3" stroke-opacity="1"></use></g></g><g><use xlink:href="#a2ulnViG9O" opacity="1" fill="#000000" fill-opacity="1"></use><g><use xlink:href="#a2ulnViG9O" opacity="1" fill-opacity="0" stroke="#000000" stroke-width="3" stroke-opacity="1"></use></g></g><g><g><use xlink:href="#jo1V7cBL" opacity="1" fill="#000000" fill-opacity="1"></use><g><use xlink:href="#jo1V7cBL" opacity="1" fill-opacity="0" stroke="#000000" stroke-width="1" stroke-opacity="1"></use></g></g><g><use xlink:href="#aBXi1eNvy" opacity="1" fill="#000000" fill-opacity="1"></use><g><use xlink:href="#aBXi1eNvy" opacity="1" fill-opacity="0" stroke="#000000" stroke-width="3" stroke-opacity="1"></use></g></g><g><use xlink:href="#c3rjSTAwD" opacity="1" fill="#000000" fill-opacity="1"></use><g><use xlink:href="#c3rjSTAwD" opacity="1" fill-opacity="0" stroke="#000000" stroke-width="3" stroke-opacity="1"></use></g></g><g><use xlink:href="#ay4JrtMIl" opacity="1" fill="#000000" fill-opacity="1"></use><g><use xlink:href="#ay4JrtMIl" opacity="1" fill-opacity="0" stroke="#000000" stroke-width="3" stroke-opacity="1"></use></g></g></g><g><g><use xlink:href="#bpoV7Xesm" opacity="1" fill="#000000" fill-opacity="1"></use><g><use xlink:href="#bpoV7Xesm" opacity="1" fill-opacity="0" stroke="#000000" stroke-width="5" stroke-opacity="1"></use></g></g><g><use xlink:href="#e24pkOTJOe" opacity="1" fill="#000000" fill-opacity="1"></use><g><use xlink:href="#e24pkOTJOe" opacity="1" fill-opacity="0" stroke="#000000" stroke-width="1" stroke-opacity="1"></use></g></g><g><use xlink:href="#a8bNfngG9" opacity="1" fill="#000000" fill-opacity="1"></use><g><use xlink:href="#a8bNfngG9" opacity="1" fill-opacity="0" stroke="#000000" stroke-width="1" stroke-opacity="1"></use></g></g></g></g></g></g></svg>