<!-- Generated by IcoMoon.io -->
<svg version="1.1" xmlns="http://www.w3.org/2000/svg" width="16" height="16" viewBox="0 0 16 16">
<title>magnifying-glass</title>
<path d="M10.066 0c-3.269 0-5.93 2.66-5.93 5.931 0 0.783 0.16 1.526 0.436 2.209l-4.572 4.572 3.285 3.287 4.574-4.576c0.684 0.277 1.426 0.438 2.207 0.438 3.271 0 5.934-2.66 5.934-5.929 0.001-3.272-2.662-5.933-5.933-5.933zM10.066 9.864c-2.166 0-3.931-1.765-3.931-3.931 0-2.168 1.766-3.933 3.931-3.933 2.17 0 3.935 1.765 3.935 3.933 0 2.165-1.765 3.931-3.936 3.931z"></path>
</svg>
