<!-- Generated by IcoMoon.io -->
<svg version="1.1" xmlns="http://www.w3.org/2000/svg" width="16" height="16" viewBox="0 0 16 16">
<title>trash-fill</title>
<path d="M14 2h-2c0-1.105-0.895-2-2-2h-4c-1.106 0-2 0.894-2 2h-4v2h2v9c0 1.656 1.344 3 3 3h6c1.656 0 3-1.344 3-3v-9h2v-2h-2zM6 12c-0.553 0-1-0.447-1-1s0.447-1 1-1 1 0.447 1 1-0.447 1-1 1zM6 8c-0.553 0-1-0.447-1-1s0.447-1 1-1 1 0.447 1 1-0.447 1-1 1zM10 12c-0.553 0-1-0.447-1-1s0.447-1 1-1 1 0.447 1 1-0.447 1-1 1zM10 8c-0.553 0-1-0.447-1-1s0.447-1 1-1 1 0.447 1 1-0.447 1-1 1z"></path>
</svg>
