<?xml version="1.0" encoding="UTF-8" standalone="no"?>
<!DOCTYPE svg PUBLIC "-//W3C//DTD SVG 1.1//EN" "http://www.w3.org/Graphics/SVG/1.1/DTD/svg11.dtd">
<svg version="1.1" xmlns="http://www.w3.org/2000/svg" xmlns:xlink="http://www.w3.org/1999/xlink" preserveAspectRatio="xMidYMid meet" viewBox="358.8328806252135 17.624999999999996 1241.0636676009767 283.37500000000006" width="1237.06" height="279.38"><defs><path d="M1469.41 86.94L1527.51 18.94C1560.69 18.77 1581.43 18.67 1589.72 18.63C1595.55 18.6 1598.95 25.2 1595.54 29.92C1584.98 44.55 1558.58 81.11 1516.35 139.62L1469.41 86.94Z" id="e1QtV7vP9v"></path><path d="M411.59 18.63C417.85 18.63 423.52 22.35 426.01 28.1C436 51.15 460.97 108.79 500.92 201C542.49 108.77 568.47 51.13 578.86 28.08C581.45 22.32 587.18 18.63 593.49 18.63C604.63 18.63 618.1 18.63 626.84 18.63C637.48 18.63 644.7 29.44 640.62 39.26C619.14 91.01 562.71 226.95 541.09 279.04C536.33 290.52 525.12 298 512.69 298C504.19 298 499.57 298 491.15 298C478.46 298 467.01 290.41 462.06 278.73C440.02 226.71 382.92 91.92 361.09 40.4C356.71 30.07 364.3 18.63 375.51 18.63C384.79 18.63 399.64 18.63 411.59 18.63Z" id="cqGGkXgJu"></path><path d="M719.76 18.63C731.48 18.63 740.96 28.15 740.91 39.87C740.66 91.5 739.98 229.12 739.73 281.75C739.68 290.74 732.38 298 723.39 298C712.92 298 697.19 298 686.58 298C677.99 298 671.03 291.03 671.03 282.44C671.06 229.68 671.12 92.11 671.15 40.64C671.15 28.48 681.01 18.63 693.17 18.63C702.74 18.63 710.04 18.63 719.76 18.63Z" id="a1vUtGqZgJ"></path><path d="M860.1 81.2C859.23 79.98 834.22 79.58 785.08 80C778.99 80.06 774.03 75.14 774.03 69.05C774.03 58.97 774.03 46.8 774.03 38.48C774.03 27.51 782.92 18.63 793.89 18.63C839.05 18.63 956.97 18.63 1002.71 18.63C1012.06 18.63 1019.59 26.28 1019.44 35.63C1019.3 44.42 1019 62.28 1018.82 73.2C1018.77 76.76 1015.88 79.64 1012.31 79.68C1001.43 79.82 974.23 80.16 930.7 80.7C929.62 187.55 928.94 254.34 928.67 281.05C928.58 290.44 920.94 298 911.55 298C901.52 298 889.38 298 879.6 298C869.56 298 861.41 289.86 861.4 279.82C861.27 148.57 860.83 82.36 860.1 81.2Z" id="ddakfrNG4"></path><path d="M1277.75 18.63C1285.55 18.63 1291.88 24.96 1291.86 32.77C1291.85 42.03 1291.81 58.06 1291.8 67.92C1291.78 74.1 1286.77 79.1 1280.6 79.1C1260.71 79.1 1211.01 79.1 1131.47 79.1L1131.07 130.38C1200.05 130.38 1243.15 130.38 1260.4 130.38C1267.58 130.38 1273.41 136.2 1273.41 143.38C1273.41 151.96 1273.41 165.9 1273.41 174.79C1273.41 181.12 1268.27 186.25 1261.94 186.25C1244.59 186.25 1201.2 186.25 1131.77 186.25L1131.07 241.2C1208.78 241.65 1257.34 241.92 1276.77 242.04C1285.36 242.08 1292.25 249.14 1292.1 257.73C1291.95 265.78 1291.78 275.49 1291.63 283.83C1291.49 291.7 1285.07 298 1277.2 298C1233.99 298 1117.32 298 1073.8 298C1066.83 298 1061.17 292.34 1061.17 285.37C1061.17 232.02 1061.17 91.55 1061.17 39.94C1061.17 28.17 1070.71 18.63 1082.48 18.63C1124.37 18.63 1234.43 18.63 1277.75 18.63Z" id="e51ZOgwPkq"></path><path d="M1413.65 158.31C1365.4 93.84 1335.25 53.55 1323.19 37.43C1317.39 29.68 1322.92 18.63 1332.6 18.63C1343.75 18.63 1357.59 18.63 1369.71 18.63C1381.46 18.63 1392.54 24.09 1399.7 33.42C1440.29 86.33 1550.54 230.06 1591.09 282.92C1595.81 289.09 1591.42 298 1583.65 298C1571.91 298 1552.58 298 1540.07 298C1530.53 298 1521.53 293.59 1515.69 286.05C1507.52 275.51 1487.1 249.16 1454.43 207C1418.96 251.35 1396.79 279.07 1387.92 290.16C1383.96 295.11 1377.95 298 1371.61 298C1357.96 298 1343.58 298 1334.07 298C1321.64 298 1314.69 283.66 1322.39 273.91C1334.56 258.5 1364.98 219.96 1413.65 158.31Z" id="dSakzy9yQ"></path></defs><g><g><use xlink:href="#e1QtV7vP9v" opacity="1" fill="#ff2929" fill-opacity="1"></use><g><use xlink:href="#e1QtV7vP9v" opacity="1" fill-opacity="0" stroke="#000000" stroke-width="1" stroke-opacity="0"></use></g></g><g><use xlink:href="#cqGGkXgJu" opacity="1" fill="#4e4e4e" fill-opacity="1"></use><g><use xlink:href="#cqGGkXgJu" opacity="1" fill-opacity="0" stroke="#000000" stroke-width="1" stroke-opacity="0"></use></g></g><g><use xlink:href="#a1vUtGqZgJ" opacity="1" fill="#4e4e4e" fill-opacity="1"></use><g><use xlink:href="#a1vUtGqZgJ" opacity="1" fill-opacity="0" stroke="#000000" stroke-width="1" stroke-opacity="0"></use></g></g><g><use xlink:href="#ddakfrNG4" opacity="1" fill="#4e4e4e" fill-opacity="1"></use><g><use xlink:href="#ddakfrNG4" opacity="1" fill-opacity="0" stroke="#000000" stroke-width="1" stroke-opacity="0"></use></g></g><g><use xlink:href="#e51ZOgwPkq" opacity="1" fill="#4e4e4e" fill-opacity="1"></use><g><use xlink:href="#e51ZOgwPkq" opacity="1" fill-opacity="0" stroke="#000000" stroke-width="1" stroke-opacity="0"></use></g></g><g><use xlink:href="#dSakzy9yQ" opacity="1" fill="#4e4e4e" fill-opacity="1"></use><g><use xlink:href="#dSakzy9yQ" opacity="1" fill-opacity="0" stroke="#000000" stroke-width="1" stroke-opacity="0"></use></g></g></g></svg>