<?xml version="1.0" encoding="UTF-8" standalone="no"?>
<!DOCTYPE svg PUBLIC "-//W3C//DTD SVG 1.1//EN" "http://www.w3.org/Graphics/SVG/1.1/DTD/svg11.dtd">
<svg version="1.1" xmlns="http://www.w3.org/2000/svg" xmlns:xlink="http://www.w3.org/1999/xlink" preserveAspectRatio="xMidYMid meet" viewBox="-1 -1.157918779040989 297.3828125 302.157918779041" width="293.38" height="298.16"><defs><path d="M146.33 0C104.02 72.38 77.58 117.61 67 135.71C62.19 143.94 53.38 149.01 43.84 149.04C37.99 149.05 23.38 149.09 0 149.15C41.59 77.7 67.59 33.04 77.98 15.18C83.45 5.78 93.51 0 104.38 0C109.98 0 123.96 0 146.33 0Z" id="b5fxDxsJA6"></path><path d="M0.24 296.93C0.6 296.87 52.77 208.99 156.77 33.3C168.99 12.65 191.18 -0.03 215.17 -0.09C266.55 -0.21 292.24 -0.18 292.24 0C292.24 0.7 140.54 260.63 137.44 265.93C129.14 280.23 117.74 290.03 103.24 295.43C98.74 297.13 93.74 297.33 50.44 297.83C24.14 298.13 1.84 298.03 0.94 297.63C0.04 297.23 -0.26 296.93 0.24 296.93Z" id="a3iUygvyYn"></path><path d="M293.38 148.85C251.07 221.23 224.63 266.46 214.05 284.56C209.24 292.79 200.43 297.86 190.89 297.89C185.04 297.9 170.43 297.94 147.05 298C188.64 226.55 214.64 181.89 225.03 164.03C230.5 154.63 240.56 148.85 251.43 148.85C257.03 148.85 271.01 148.85 293.38 148.85Z" id="j32ckQ2mbx"></path></defs><g><g><use xlink:href="#b5fxDxsJA6" opacity="1" fill="#8d8d8d" fill-opacity="1"></use><g><use xlink:href="#b5fxDxsJA6" opacity="1" fill-opacity="0" stroke="#000000" stroke-width="1" stroke-opacity="0"></use></g></g><g><use xlink:href="#a3iUygvyYn" opacity="1" fill="#ff2929" fill-opacity="1"></use><g><use xlink:href="#a3iUygvyYn" opacity="1" fill-opacity="0" stroke="#000000" stroke-width="1" stroke-opacity="0"></use></g></g><g><use xlink:href="#j32ckQ2mbx" opacity="1" fill="#8d8d8d" fill-opacity="1"></use><g><use xlink:href="#j32ckQ2mbx" opacity="1" fill-opacity="0" stroke="#000000" stroke-width="1" stroke-opacity="0"></use></g></g></g></svg>